<svg version="1.1" id="Layer_1" xmlns="http://www.w3.org/2000/svg" xmlns:xlink="http://www.w3.org/1999/xlink" x="0px" y="0px"
	 width="100%" viewBox="0 0 313 312" enable-background="new 0 0 313 312" xml:space="preserve">
<path fill="#FBFBFB" opacity="1.000000" stroke="none" 
	d="
M129.000000,1.000000 
	C140.020889,1.000000 151.041794,1.000000 162.483826,1.325064 
	C162.096771,3.122295 161.288559,4.594463 160.480347,6.066630 
	C161.048523,6.552714 161.616699,7.038798 162.184860,7.524882 
	C164.456573,5.349921 166.728287,3.174961 169.000000,1.000000 
	C173.024551,1.000000 177.049088,1.000000 181.244308,1.350865 
	C188.615570,3.756699 195.816147,5.811668 203.023529,8.228292 
	C203.335144,9.242431 203.639984,9.894914 203.944824,10.547398 
	C204.673203,9.852006 205.401596,9.156614 206.460907,8.499233 
	C207.191238,8.725926 207.590652,8.914609 207.992371,9.494905 
	C208.689514,11.193961 209.384338,12.501405 210.079163,13.808847 
	C211.435577,12.991816 212.791992,12.174787 214.534912,11.405069 
	C222.964233,15.593317 231.007065,19.734253 239.038086,24.255774 
	C243.261902,31.395397 248.646988,36.461281 257.408264,36.987396 
	C257.857849,37.325542 258.046448,37.614796 257.942200,38.107643 
	C257.756165,39.116993 257.862946,39.922749 257.969757,40.728500 
	C258.720764,40.311203 259.471771,39.893902 260.478394,39.594193 
	C261.246307,40.256912 261.758575,40.802044 262.197723,41.743904 
	C261.720886,43.646240 261.317108,45.151852 260.913361,46.657467 
	C261.345093,46.432110 261.776825,46.206757 262.208557,45.981400 
	C263.737122,48.074326 265.265686,50.167248 266.794220,52.260170 
	C268.329498,51.968765 269.671722,52.380611 270.911346,52.998287 
	C272.709351,53.894184 274.433228,54.938774 276.482635,56.072655 
	C286.648834,68.786873 295.800110,81.796394 301.664886,96.809143 
	C307.442993,111.600136 311.300018,126.832191 312.232300,142.753754 
	C312.316925,144.198715 313.387360,145.585953 314.000000,147.000000 
	C314.000000,152.022095 314.000000,157.044189 313.621735,162.257050 
	C312.202637,169.410294 311.366577,176.410721 310.083405,183.328232 
	C305.858887,206.102463 297.258911,227.026077 283.159912,245.225693 
	C281.327454,241.590683 280.337921,244.315140 279.409424,245.459473 
	C277.484283,247.832077 276.002655,250.619293 273.844666,252.731323 
	C272.040588,254.497009 269.533386,255.544266 267.186371,257.003632 
	C268.924377,258.452515 270.033264,259.376953 271.029297,260.601074 
	C269.425354,262.293335 267.934296,263.685883 266.017761,265.059265 
	C265.085999,265.846558 264.579651,266.653015 263.965088,267.666687 
	C263.856873,267.873901 263.413940,268.023743 263.105835,267.751587 
	C261.484100,266.703247 260.170410,265.927032 258.911011,265.182861 
	C257.885376,267.800293 257.013062,269.857330 256.326691,271.974640 
	C256.232117,272.266418 257.059784,272.857117 257.261902,273.623352 
	C255.690659,274.950195 254.318024,275.963104 252.688766,276.778625 
	C251.658783,275.485962 250.885437,274.390686 249.398422,272.284637 
	C249.702850,275.437897 249.881729,277.290833 249.969116,279.375549 
	C249.528854,279.947601 249.180099,280.287872 248.441345,280.765137 
	C247.811783,281.038361 247.572220,281.174591 247.285217,281.094574 
	C247.409515,280.917175 247.581238,280.955994 247.752960,280.994812 
	C247.642792,281.096130 247.532654,281.197449 247.162048,281.493164 
	C246.691589,281.740814 246.481598,281.794128 246.111450,281.476685 
	C241.937714,279.761383 240.638077,280.793121 239.673889,285.989716 
	C230.622910,290.586365 221.885941,295.033325 213.036789,299.195831 
	C212.298050,298.622437 211.671494,298.333557 210.180771,297.646240 
	C211.202896,298.929688 211.591751,299.417938 211.595871,300.148438 
	C208.818939,300.831573 206.426758,301.272430 204.198929,301.542145 
	C204.227997,301.475098 204.092728,301.579224 204.034454,302.055298 
	C199.123245,303.797638 194.135025,305.168030 188.975311,306.177307 
	C183.867004,302.887390 180.326721,303.709717 178.494781,308.308990 
	C175.759003,308.672943 173.535675,308.819611 171.702301,308.668030 
	C172.313644,307.519745 172.535019,306.669739 172.756393,305.819763 
	C172.294693,305.427979 171.832977,305.036224 171.371277,304.644470 
	C169.924896,306.187439 168.478516,307.730377 166.657806,309.450897 
	C160.178238,309.509430 154.072968,309.390411 147.973206,308.847778 
	C147.877182,306.773071 147.775650,305.122009 147.650742,303.090576 
	C145.878387,304.741577 144.618042,306.793976 143.648758,306.664642 
	C139.716141,306.139984 135.872925,304.945129 132.131470,303.944061 
	C132.178284,303.928162 132.090378,303.965668 131.595337,304.004517 
	C129.746140,304.902954 128.304062,305.800079 126.439011,306.676086 
	C99.219353,300.966888 75.390083,289.387817 55.253487,270.639771 
	C56.113102,268.965546 56.758598,267.554535 57.404099,266.143524 
	C53.861561,265.130096 50.319023,264.116669 46.479637,262.994690 
	C45.118759,261.598419 44.054729,260.310699 42.992466,258.623413 
	C42.104462,257.581024 41.214691,256.938263 40.107239,256.325317 
	C39.557941,256.296387 39.358906,256.102020 39.503525,255.470398 
	C39.838268,253.773315 39.961948,252.377960 40.092957,250.899857 
	C38.787090,251.799088 37.938648,252.383347 36.771301,252.803452 
	C35.069138,250.663177 33.685879,248.687042 32.257172,246.435699 
	C31.132792,244.796127 30.053858,243.431763 28.905262,241.732468 
	C27.816408,239.621796 26.797218,237.846054 26.132675,236.028595 
	C30.021513,235.242279 28.134892,232.855347 28.281395,230.963531 
	C28.885387,230.625458 29.206553,230.322571 29.527725,230.019684 
	C29.319792,229.839340 29.111856,229.659012 28.903923,229.478683 
	C28.603069,229.986252 28.302214,230.493805 27.694780,230.842743 
	C26.315491,229.282074 25.242783,227.880020 23.493015,225.593033 
	C23.084040,228.253845 22.870092,229.645798 22.363243,230.794312 
	C17.958710,220.571655 13.847082,210.592453 9.892213,200.265533 
	C12.418910,195.820465 11.551869,193.494705 6.952689,191.621979 
	C-2.429267,148.467789 3.065477,108.188004 27.502371,70.904991 
	C30.225624,67.158775 32.667770,63.585293 35.361801,59.898468 
	C36.001682,59.170044 36.389683,58.554966 36.998722,57.828552 
	C37.573658,57.177250 37.927555,56.637283 38.594406,55.926811 
	C40.485821,54.119690 42.064281,52.483074 44.092659,50.886902 
	C50.677883,50.958832 51.293858,50.231049 51.048271,43.812248 
	C51.470406,44.177315 51.480789,44.457413 51.632156,44.904751 
	C51.956032,45.057808 52.138920,45.043621 52.321808,45.029434 
	C52.086533,44.880001 51.851257,44.730564 51.308254,44.287090 
	C51.134335,43.544025 51.122013,42.893196 51.423096,42.675163 
	C61.908962,35.081810 72.424355,27.529234 83.206146,20.102917 
	C85.037910,20.185440 86.607811,20.016783 88.157089,20.130054 
	C89.121841,20.200592 90.055435,20.697422 90.765106,21.015247 
	C90.254143,21.142218 89.981087,21.256874 89.708023,21.371532 
	C89.793594,21.493938 89.879166,21.616343 89.964737,21.738747 
	C90.309189,21.491566 90.653625,21.244385 91.374161,20.917288 
	C92.160950,18.875881 92.571648,16.914391 93.170761,14.711421 
	C93.889420,14.171274 94.419647,13.872605 95.223511,13.567265 
	C96.410614,13.001232 97.324089,12.441872 98.634384,11.869152 
	C106.673378,9.445461 114.315544,7.035131 122.234642,4.687041 
	C123.005348,4.492123 123.499138,4.234965 124.404434,3.990176 
	C126.233093,3.682997 127.676712,3.438603 129.037460,2.959053 
	C129.231064,2.890826 129.022461,1.681300 129.000000,1.000000 
M186.399094,148.278778 
	C186.399094,148.278778 186.542389,148.356750 187.332153,148.898895 
	C188.849747,149.364777 190.367325,149.830673 192.316498,150.880920 
	C195.128296,151.853378 197.940109,152.825836 201.075363,154.218918 
	C201.720047,154.447830 202.364746,154.676743 203.237152,155.203079 
	C203.237152,155.203079 203.611267,155.184052 204.015274,155.745987 
	C205.658722,156.540848 207.302170,157.335709 209.171005,158.590714 
	C209.632309,158.788147 210.093597,158.985580 210.942688,159.763214 
	C213.598190,161.579163 216.253693,163.395096 219.231705,165.787186 
	C228.108597,173.441025 236.209045,181.730652 240.871063,193.308426 
	C241.247177,195.872208 241.623291,198.435989 241.724380,201.107498 
	C241.816360,201.071869 241.908325,201.036240 242.829132,200.812897 
	C243.340195,200.183212 243.851273,199.553543 244.965958,199.438034 
	C251.621445,214.212189 253.182495,229.869522 252.192322,247.200928 
	C254.329163,245.157257 255.494156,244.281723 256.361328,243.173172 
	C260.555084,237.812210 264.680603,232.397629 268.807434,226.984619 
	C272.661316,221.929672 274.581177,215.784927 277.607849,210.279678 
	C286.363129,194.354675 289.795776,176.579514 290.034821,158.428421 
	C290.442719,127.457733 282.870392,98.976913 262.178772,74.182419 
	C260.318970,72.050201 258.459137,69.917992 256.140350,67.218582 
	C255.184296,66.192032 254.228256,65.165474 253.080933,63.587933 
	C252.057495,62.689716 251.034058,61.791500 249.978806,60.664455 
	C249.978806,60.664455 249.791794,60.528801 249.351242,59.996784 
	C244.308975,55.964561 239.266724,51.932339 233.884277,47.297890 
	C230.006729,44.914207 226.129181,42.530521 221.913925,39.741035 
	C221.279495,39.484802 220.645065,39.228569 219.589905,38.409260 
	C203.357193,29.932589 186.149231,24.334681 167.840088,23.894409 
	C155.000565,23.585661 142.114960,25.193800 128.891388,25.116100 
	C123.284027,22.863304 121.626266,23.468882 120.390984,28.360018 
	C119.253777,28.634407 118.116562,28.908796 116.903221,28.519337 
	C113.935822,26.647007 112.733932,28.333298 110.925018,31.563593 
	C109.767212,31.979948 108.609406,32.396305 108.017487,31.968954 
	C107.246956,31.410215 106.375267,30.282473 105.724632,30.398146 
	C103.674355,30.762657 101.732559,31.691587 99.701645,32.221401 
	C96.603775,33.029560 94.681915,34.647793 94.993011,38.520870 
	C94.993011,38.520870 94.962265,38.914955 94.469345,39.063606 
	C94.304314,39.110676 94.139275,39.157749 93.446877,39.077602 
	C93.283119,39.381134 93.119362,39.684666 92.569725,40.080105 
	C92.569725,40.080105 92.173058,40.080029 91.569107,39.661282 
	C89.964783,38.921146 88.360458,38.181011 86.756142,37.440876 
	C87.009132,39.267754 87.262123,41.094635 87.161797,43.353897 
	C86.612762,43.833660 86.063721,44.313419 84.867676,44.930264 
	C82.199333,46.930752 79.530983,48.931244 76.176331,51.132637 
	C74.350319,52.295826 72.524307,53.459019 70.769821,53.971027 
	C69.953217,53.682018 69.136612,53.393009 68.320007,53.104000 
	C68.195953,54.679832 68.071892,56.255665 67.639099,58.333321 
	C66.919731,58.965256 66.200371,59.597187 64.865761,59.869881 
	C64.255241,59.013542 63.644714,58.157200 63.034191,57.300861 
	C63.027897,57.802937 63.021603,58.305008 63.015308,58.807079 
	C60.500477,59.546158 57.985641,60.285240 55.261814,61.085739 
	C56.298603,61.525856 57.152145,61.888187 58.142639,62.308655 
	C56.909595,64.658813 53.432529,66.355377 56.776443,69.629135 
	C54.496017,72.701469 52.215591,75.773804 49.327370,79.153702 
	C47.536724,81.762184 45.746078,84.370659 43.400860,87.385681 
	C8.847886,146.181671 27.701361,214.661194 63.097229,246.675980 
	C63.097229,215.103317 64.062256,183.598358 62.830257,152.179550 
	C61.556488,119.695328 78.977913,96.293396 104.680168,89.702484 
	C105.312630,89.540306 105.765015,88.675926 107.155067,88.121826 
	C109.103630,88.053558 111.052200,87.985298 113.932861,88.021141 
	C122.645103,88.096344 131.357346,88.171555 140.015884,89.104179 
	C140.343719,92.723030 140.816849,96.335693 140.971268,99.961929 
	C141.380386,109.569405 141.674545,119.182091 141.953613,128.794464 
	C141.996307,130.265503 142.148834,131.973648 141.512024,133.183365 
	C138.413528,139.069397 139.529785,144.401505 142.020615,148.379654 
	C151.621475,148.379654 160.140045,148.485550 168.653000,148.313278 
	C171.116425,148.263443 173.563721,147.415314 176.709869,146.896225 
	C177.162552,146.856888 177.615234,146.817551 178.902252,146.915756 
	C181.388382,147.330429 183.874512,147.745102 186.399094,148.278778 
M119.274956,102.618332 
	C119.485901,101.472076 120.017006,99.376259 119.859406,99.323120 
	C117.754135,98.613304 114.812531,97.084824 113.538673,97.938408 
	C111.318230,99.426239 107.193222,100.254097 107.802422,105.085152 
	C106.817032,105.954750 105.708801,106.720116 104.867340,107.711838 
	C101.056938,112.202591 100.493233,117.270248 102.886696,122.521545 
	C105.235435,127.674698 109.553055,130.230881 115.151169,130.253998 
	C121.042580,130.278320 125.252151,127.287949 127.641022,122.007713 
	C130.938629,114.718826 127.706245,107.962517 119.274956,102.618332 
M121.238640,204.060089 
	C121.227501,228.858627 121.299461,253.657822 121.105957,278.454956 
	C121.080139,281.763306 122.255760,282.823853 125.155258,283.284241 
	C131.554657,284.300323 137.886566,285.879822 144.316772,286.537018 
	C161.344116,288.277252 178.147202,286.930939 194.887802,281.908051 
	C194.887802,272.642334 195.333893,263.480957 194.773514,254.381561 
	C194.091797,243.311874 198.111923,231.526566 190.108459,221.416199 
	C187.693207,218.365112 186.228485,214.477982 183.547562,211.737701 
	C177.439377,205.494308 169.639084,203.029221 160.935104,203.054520 
	C148.624420,203.090302 136.313217,202.956238 123.866165,202.202469 
	C123.030571,200.832581 122.493927,198.995102 121.279076,198.218414 
	C119.944237,197.365036 117.990982,197.364914 116.293030,197.281769 
	C115.916008,197.263321 115.014717,198.870132 115.147041,199.017548 
	C115.955017,199.917755 116.940681,200.691376 117.965759,201.354736 
	C119.027351,202.041748 120.201057,202.555481 121.238640,204.060089 
M244.963669,275.260193 
	C245.086868,275.994751 245.210083,276.729340 245.333282,277.463898 
	C245.747025,277.386627 246.160767,277.309387 246.574509,277.232147 
	C246.251465,276.540955 245.928421,275.849792 244.963669,275.260193 
M115.707115,204.560638 
	C115.989250,204.291489 116.271385,204.022339 116.553528,203.753204 
	C116.442001,203.636398 116.330475,203.519592 116.218948,203.402802 
	C115.936813,203.672256 115.654686,203.941711 115.707115,204.560638 
M121.084358,285.513855 
	C121.227417,285.757477 121.370476,286.001129 121.513527,286.244751 
	C121.645081,285.993469 121.932304,285.685883 121.867149,285.505737 
	C121.792671,285.299805 121.404816,285.207214 121.084358,285.513855 
M211.943802,296.837128 
	C211.794540,296.587555 211.693680,296.209229 211.480682,296.129150 
	C211.310349,296.065063 211.003601,296.363678 210.757416,296.501312 
	C211.004028,296.639496 211.250641,296.777679 211.943802,296.837128 
M61.584301,55.517132 
	C61.584301,55.517132 61.478188,55.580490 61.584301,55.517132 
M258.516785,44.412613 
	C258.516785,44.412613 258.580597,44.520790 258.516785,44.412613 
M260.484314,43.587368 
	C260.484314,43.587368 260.418915,43.477486 260.484314,43.587368 
M274.593353,58.518814 
	C274.593353,58.518814 274.475769,58.591270 274.593353,58.518814 
M273.417908,60.482014 
	C273.417908,60.482014 273.522308,60.420425 273.417908,60.482014 
z"/>
<path fill="#020202" opacity="1.000000" stroke="none" 
	d="
M204.034592,301.713318 
	C206.426758,301.272430 208.818939,300.831573 211.821655,300.187317 
	C212.774170,299.962738 213.013107,299.794861 213.148987,299.480316 
	C221.885941,295.033325 230.622910,290.586365 239.974762,286.044434 
	C241.309174,285.593231 242.028687,285.237000 243.026505,285.067749 
	C243.803452,286.048218 244.302124,286.841736 244.451172,287.078888 
	C247.051254,285.937714 249.306885,284.947693 251.832962,283.838989 
	C250.781433,282.714142 249.806381,281.671143 248.831360,280.628113 
	C249.180099,280.287872 249.528854,279.947601 250.278137,279.321228 
	C251.434250,278.348724 252.189819,277.662384 252.945389,276.976044 
	C254.318024,275.963104 255.690659,274.950195 257.521667,273.546875 
	C259.791351,271.445557 261.602631,269.734650 263.413940,268.023743 
	C263.413940,268.023743 263.856873,267.873901 264.225342,267.553223 
	C265.210266,266.514526 265.826721,265.796478 266.443207,265.078430 
	C267.934296,263.685883 269.425354,262.293335 271.336731,260.450928 
	C275.579376,255.196075 279.401672,250.391052 283.223969,245.586044 
	C297.258911,227.026077 305.858887,206.102463 310.083405,183.328232 
	C311.366577,176.410721 312.202637,169.410294 313.621735,162.723907 
	C314.000000,212.975769 314.000000,262.951538 314.000000,312.963654 
	C209.741470,312.963654 105.482918,312.963654 1.112182,312.963654 
	C1.112182,209.000061 1.112182,105.000053 1.118193,1.000020 
	C43.437031,1.000000 85.749855,1.000000 128.531342,1.000000 
	C129.022461,1.681300 129.231064,2.890826 129.037460,2.959053 
	C127.676712,3.438603 126.233093,3.682997 124.252075,3.777580 
	C123.111374,3.910009 122.534546,4.267403 121.957718,4.624799 
	C114.315544,7.035131 106.673378,9.445461 98.497795,11.517788 
	C95.348122,9.875640 95.344383,9.878611 94.949883,13.573936 
	C94.419647,13.872605 93.889420,14.171274 92.807190,14.709905 
	C89.148651,16.623535 86.042099,18.297201 82.935555,19.970867 
	C72.424355,27.529234 61.908962,35.081810 51.423096,42.675163 
	C51.122013,42.893196 51.134335,43.544025 51.307243,44.350285 
	C51.613964,44.707516 51.491169,44.737507 51.491169,44.737507 
	C51.480789,44.457413 51.470406,44.177315 50.780563,43.891739 
	C47.948318,46.206326 45.795532,48.526390 43.642746,50.846458 
	C42.064281,52.483074 40.485821,54.119690 38.525429,55.611908 
	C37.659592,55.329216 37.175682,55.190929 36.691772,55.052643 
	C36.720409,56.015057 36.749046,56.977470 36.777683,57.939884 
	C36.389683,58.554966 36.001682,59.170044 34.965561,59.895489 
	C27.687294,61.042873 24.717947,65.675827 27.221264,71.077728 
	C3.065477,108.188004 -2.429267,148.467789 6.921096,192.001938 
	C7.932978,195.373566 8.834215,197.993408 9.735453,200.613251 
	C13.847082,210.592453 17.958710,220.571655 22.438328,231.078873 
	C23.796886,233.094696 24.787458,234.582504 25.778027,236.070312 
	C26.797218,237.846054 27.816408,239.621796 28.855804,242.092056 
	C29.251616,244.732513 29.627218,246.678452 30.002819,248.624390 
	C30.769415,247.986557 31.536011,247.348740 32.302612,246.710922 
	C33.685879,248.687042 35.069138,250.663177 36.751579,253.150696 
	C37.797993,254.365417 38.545227,255.068756 39.292458,255.772095 
	C39.358906,256.102020 39.557941,256.296387 40.284843,256.596741 
	C41.450321,257.566559 42.220512,258.294769 42.990700,259.023010 
	C44.054729,260.310699 45.118759,261.598419 46.613083,263.306427 
	C49.708706,266.118805 52.374035,268.510895 55.039364,270.902954 
	C75.390083,289.387817 99.219353,300.966888 126.766945,306.844910 
	C134.334488,307.780365 141.151108,308.525879 147.967712,309.271393 
	C154.072968,309.390411 160.178238,309.509430 166.983795,309.594452 
	C168.118576,309.422150 168.553055,309.283844 169.251770,309.211060 
	C170.044601,309.177612 170.573212,309.078705 171.134521,309.007690 
	C171.167236,309.035614 171.312332,308.966309 171.312332,308.966309 
	C173.535675,308.819611 175.759003,308.672943 178.909363,308.370331 
	C182.939865,307.655762 186.043350,307.097107 189.146820,306.538452 
	C194.135025,305.168030 199.123245,303.797638 204.063095,302.033539 
	C204.014740,301.639832 204.034592,301.713318 204.034592,301.713318 
z"/>
<path fill="#020202" opacity="1.000000" stroke="none" 
	d="
M239.049896,23.875187 
	C231.007065,19.734253 222.964233,15.593317 214.289642,11.194334 
	C211.768616,10.325290 209.879333,9.714292 207.990051,9.103292 
	C207.590652,8.914609 207.191238,8.725926 206.200623,8.289943 
	C204.745178,7.983974 203.880951,7.925305 203.016739,7.866637 
	C195.816147,5.811668 188.615570,3.756699 181.707489,1.350865 
	C225.930664,1.000000 269.861328,1.000000 314.000000,1.000000 
	C314.000000,49.354031 314.000000,97.708359 314.000000,146.531342 
	C313.387360,145.585953 312.316925,144.198715 312.232300,142.753754 
	C311.300018,126.832191 307.442993,111.600136 301.664886,96.809143 
	C295.800110,81.796394 286.648834,68.786873 276.393860,55.742249 
	C271.431061,50.621822 266.850922,45.984505 262.270813,41.347183 
	C261.758575,40.802044 261.246307,40.256912 260.354492,39.360916 
	C259.395020,38.641384 258.815033,38.272717 258.235077,37.904045 
	C258.046448,37.614796 257.857849,37.325542 257.244812,36.689835 
	C250.896927,32.187313 244.973404,28.031250 239.049896,23.875187 
z"/>
<path fill="#F2F2F2" opacity="1.000000" stroke="none" 
	d="
M168.571533,1.000000 
	C166.728287,3.174961 164.456573,5.349921 162.184860,7.524882 
	C161.616699,7.038798 161.048523,6.552714 160.480347,6.066630 
	C161.288559,4.594463 162.096771,3.122295 162.952484,1.325064 
	C164.714355,1.000000 166.428711,1.000000 168.571533,1.000000 
z"/>
<path fill="#020202" opacity="1.000000" stroke="none" 
	d="
M249.791794,60.528801 
	C249.791794,60.528801 249.978806,60.664455 249.954971,61.144371 
	C249.821594,63.493122 249.712067,65.361961 249.602524,67.230804 
	C250.085785,67.347893 250.569046,67.464981 251.052307,67.582069 
	C251.792267,66.434349 252.532242,65.286636 253.272202,64.138916 
	C254.228256,65.165474 255.184296,66.192032 256.028442,67.549774 
	C255.084610,68.388924 254.252655,68.896873 253.607529,69.290764 
	C255.382370,70.826874 256.653229,72.192291 258.175995,73.162155 
	C259.431641,73.961868 260.985626,74.293198 262.407379,74.832092 
	C282.870392,98.976913 290.442719,127.457733 290.034821,158.428421 
	C289.795776,176.579514 286.363129,194.354675 277.607849,210.279678 
	C274.581177,215.784927 272.661316,221.929672 268.807434,226.984619 
	C264.680603,232.397629 260.555084,237.812210 256.361328,243.173172 
	C255.494156,244.281723 254.329163,245.157257 252.192322,247.200928 
	C253.182495,229.869522 251.621445,214.212189 244.621765,198.873535 
	C243.243637,196.401443 242.209732,194.493851 241.175827,192.586243 
	C236.209045,181.730652 228.108597,173.441025 219.091583,165.094208 
	C218.119659,159.496658 214.573486,158.959763 210.554901,159.183014 
	C210.093597,158.985580 209.632309,158.788147 209.070526,157.950348 
	C208.826187,155.954041 208.682312,154.598068 208.463730,152.538040 
	C206.363388,153.683350 204.987335,154.433701 203.611267,155.184052 
	C203.611267,155.184052 203.237152,155.203079 203.118530,154.697174 
	C202.626099,153.631088 202.252258,153.070892 201.878418,152.510696 
	C201.502930,152.939896 201.127411,153.369095 200.751907,153.798294 
	C197.940109,152.825836 195.128296,151.853378 192.166641,150.248016 
	C193.603973,149.408936 195.324005,149.511993 196.738739,148.904327 
	C198.001633,148.361877 198.927292,147.034286 200.462067,145.956802 
	C215.613281,145.917206 230.304214,145.973969 244.996445,146.443130 
	C245.872299,148.541443 246.746841,150.227371 247.621399,151.913315 
	C248.414459,150.608643 249.207520,149.303970 250.110016,147.781342 
	C250.419052,147.291504 250.679443,147.104019 251.362488,147.158844 
	C253.598389,147.549881 255.472412,147.783005 257.717438,148.062286 
	C258.043640,145.004608 258.701782,142.557022 258.456635,140.203522 
	C258.141449,137.177444 257.101349,134.226868 256.373566,131.243774 
	C256.807648,131.026245 257.241699,130.808731 257.675781,130.591202 
	C255.899963,130.169891 254.124146,129.748581 251.418442,129.106644 
	C253.740646,127.534630 255.252563,126.511154 258.362244,124.406052 
	C251.435608,121.611313 245.720856,119.305550 239.785675,116.890549 
	C239.290253,116.580193 239.102539,116.316841 239.004501,115.641678 
	C239.338181,114.194847 239.669464,113.097610 240.245026,111.810638 
	C240.441147,110.907585 240.393005,110.194260 240.344849,109.480942 
	C239.896362,109.987114 239.447876,110.493294 238.640228,110.993195 
	C236.521118,109.324181 234.761169,107.661446 232.993958,105.631897 
	C232.524521,104.460289 232.249908,103.212395 231.569092,102.924240 
	C227.801254,101.329552 226.118469,98.869286 228.386383,93.761131 
	C223.551636,94.174278 219.642059,94.508362 214.646088,94.935280 
	C214.192200,94.564674 212.791809,93.111877 211.117889,92.121269 
	C207.990372,90.270432 205.658768,90.378372 205.997879,95.249985 
	C205.997177,95.693481 205.994949,95.870796 205.633270,95.996956 
	C202.835815,95.011887 200.397781,94.077980 197.917603,92.784050 
	C196.255936,92.199287 194.636414,91.974548 192.760941,91.777199 
	C192.338867,91.847740 192.172760,91.890892 191.690582,91.811981 
	C190.928253,91.623032 190.481995,91.556145 189.972931,91.212746 
	C189.275726,90.586899 188.641327,90.237564 187.967072,89.607071 
	C187.280273,89.227264 186.633316,89.128624 185.656433,89.021423 
	C184.887375,88.985939 184.448242,88.959015 183.963104,88.570297 
	C183.695236,87.588829 183.162933,86.888824 183.299301,86.361870 
	C184.748001,80.763847 182.041977,80.496590 177.837097,81.965561 
	C177.104248,82.221581 176.292862,82.252846 175.517761,82.387917 
	C175.735031,82.695091 175.952301,83.002258 176.169586,83.309425 
	C175.111786,84.542412 174.053986,85.775391 172.696075,87.032288 
	C171.926743,87.380295 171.457535,87.704399 170.610596,88.071594 
	C169.490036,87.986137 168.747223,87.857582 167.991730,87.368187 
	C166.117310,86.245483 164.307037,85.281784 162.376526,84.789558 
	C160.986801,84.435204 158.520798,85.277130 158.107681,84.610603 
	C155.518417,80.433105 151.547638,81.992332 148.223099,82.179375 
	C145.498154,82.332687 143.195938,83.060890 141.422867,80.160080 
	C141.096222,79.625664 139.261688,80.012909 138.123138,79.974739 
	C138.257904,81.079155 138.290253,82.208549 138.551987,83.282005 
	C138.923462,84.805435 139.463806,86.287689 139.933945,87.912064 
	C139.935898,88.036598 140.069595,88.246765 140.069595,88.246765 
	C131.357346,88.171555 122.645103,88.096344 113.467957,87.566315 
	C113.736633,79.872498 108.614410,83.053986 104.418030,82.357582 
	C105.193565,84.738289 105.747482,86.438675 106.301392,88.139053 
	C105.765015,88.675926 105.312630,89.540306 104.680168,89.702484 
	C78.977913,96.293396 61.556488,119.695328 62.830257,152.179550 
	C64.062256,183.598358 63.097229,215.103317 63.097229,246.675980 
	C27.701361,214.661194 8.847886,146.181671 43.960533,87.311676 
	C45.315544,87.423454 46.770035,87.862648 46.810215,87.758141 
	C47.939312,84.821091 48.925514,81.829109 49.935165,78.846138 
	C52.215591,75.773804 54.496017,72.701469 57.194195,69.181000 
	C60.234966,65.898285 62.857986,63.063705 65.481010,60.229126 
	C66.200371,59.597187 66.919731,58.965256 68.152008,58.021164 
	C71.428413,58.047672 71.222549,56.544231 70.448761,54.679771 
	C70.383743,54.630756 70.289146,54.498215 70.362305,54.501808 
	C70.435455,54.505398 70.698288,54.622204 70.698288,54.622208 
	C72.524307,53.459019 74.350319,52.295826 76.844627,51.175781 
	C80.011909,50.745865 82.654770,50.631813 84.971306,49.703472 
	C87.525169,48.680023 87.890266,46.718525 85.514687,44.793179 
	C86.063721,44.313419 86.612762,43.833660 87.687737,43.113426 
	C88.439590,42.814262 88.665512,42.755569 89.079094,43.003235 
	C90.590500,43.813618 91.914246,44.317650 93.932106,45.085983 
	C94.333221,42.683144 94.647743,40.799049 94.962265,38.914955 
	C94.962265,38.914955 94.993011,38.520870 95.394707,38.277908 
	C99.681473,36.294182 103.566536,34.553421 107.451599,32.812660 
	C108.609406,32.396305 109.767212,31.979948 111.800888,31.287678 
	C114.110962,30.402237 115.545158,29.792713 116.979355,29.183187 
	C118.116562,28.908796 119.253777,28.634407 121.080048,28.213821 
	C124.262711,27.360384 126.756317,26.653139 129.249924,25.945896 
	C142.114960,25.193800 155.000565,23.585661 167.840088,23.894409 
	C186.149231,24.334681 203.357193,29.932589 219.739716,39.038597 
	C219.309753,40.891708 218.729965,42.115479 218.150162,43.339252 
	C218.638550,43.621201 219.126938,43.903149 219.615311,44.185101 
	C220.494095,42.839012 221.372864,41.492924 222.251633,40.146835 
	C226.129181,42.530521 230.006729,44.914207 233.752762,47.808731 
	C234.370193,53.136677 241.745911,53.525604 241.061432,59.396011 
	C241.021591,59.737762 242.326630,60.248604 243.022339,60.652260 
	C243.144012,60.722847 243.348236,60.648514 243.514404,60.645393 
	C245.606873,60.606068 247.699326,60.567539 249.791794,60.528801 
M215.812119,39.886208 
	C215.365616,39.535107 214.919113,39.184002 214.472610,38.832897 
	C214.409744,39.580555 214.346878,40.328217 214.284012,41.075871 
	C214.813690,40.883011 215.343369,40.690147 215.812119,39.886208 
z"/>
<path fill="#030303" opacity="1.000000" stroke="none" 
	d="
M124.002243,202.894775 
	C136.313217,202.956238 148.624420,203.090302 160.935104,203.054520 
	C169.639084,203.029221 177.439377,205.494308 183.547562,211.737701 
	C186.228485,214.477982 187.693207,218.365112 190.108459,221.416199 
	C198.111923,231.526566 194.091797,243.311874 194.773514,254.381561 
	C195.333893,263.480957 194.887802,272.642334 194.887802,281.908051 
	C178.147202,286.930939 161.344116,288.277252 144.316772,286.537018 
	C137.886566,285.879822 131.554657,284.300323 125.155258,283.284241 
	C122.255760,282.823853 121.080139,281.763306 121.105957,278.454956 
	C121.299461,253.657822 121.227501,228.858627 121.620224,203.611450 
	C122.668625,203.073471 123.335434,202.984116 124.002243,202.894775 
z"/>
<path fill="#060606" opacity="1.000000" stroke="none" 
	d="
M118.898949,103.226807 
	C127.706245,107.962517 130.938629,114.718826 127.641022,122.007713 
	C125.252151,127.287949 121.042580,130.278320 115.151169,130.253998 
	C109.553055,130.230881 105.235435,127.674698 102.886696,122.521545 
	C100.493233,117.270248 101.056938,112.202591 104.867340,107.711838 
	C105.708801,106.720116 106.817032,105.954750 108.410484,104.732880 
	C112.312012,103.996010 115.605484,103.611412 118.898949,103.226807 
z"/>
<path fill="#F7F5DE" opacity="1.000000" stroke="none" 
	d="
M176.018402,146.933136 
	C173.563721,147.415314 171.116425,148.263443 168.653000,148.313278 
	C160.140045,148.485550 151.621475,148.379654 142.020615,148.379654 
	C139.529785,144.401505 138.413528,139.069397 141.512024,133.183365 
	C142.148834,131.973648 141.996307,130.265503 141.953613,128.794464 
	C141.674545,119.182091 141.380386,109.569405 140.971268,99.961929 
	C140.816849,96.335693 140.343719,92.723030 140.042740,88.675476 
	C140.069595,88.246765 139.935898,88.036598 140.306992,88.007462 
	C141.448105,88.014915 142.218109,88.051506 143.004333,88.551010 
	C143.020523,107.849655 143.020523,126.685402 143.020523,145.921844 
	C149.017029,145.921844 154.147217,145.790741 159.267746,145.957184 
	C164.855972,146.138809 170.435226,146.596039 176.018402,146.933136 
z"/>
<path fill="#A46E38" opacity="1.000000" stroke="none" 
	d="
M176.364136,146.914673 
	C170.435226,146.596039 164.855972,146.138809 159.267746,145.957184 
	C154.147217,145.790741 149.017029,145.921844 143.020523,145.921844 
	C143.020523,126.685402 143.020523,107.849655 143.338394,88.444061 
	C144.124603,87.862419 144.592957,87.850639 145.069733,88.093872 
	C145.083160,88.518784 145.088165,88.688683 145.069000,89.221725 
	C145.052185,90.070503 145.059555,90.556137 145.042938,91.507248 
	C145.002548,105.312538 144.986130,118.652359 144.695160,132.291809 
	C144.294800,134.229279 144.057953,135.867416 144.062302,137.504913 
	C144.081299,144.667923 144.450760,144.965256 151.659744,145.027451 
	C160.593643,145.104523 169.526886,145.259247 178.439026,145.623764 
	C178.316498,146.176743 178.199921,146.480438 178.067917,146.778198 
	C177.615234,146.817551 177.162552,146.856888 176.364136,146.914673 
z"/>
<path fill="#EFEFEF" opacity="1.000000" stroke="none" 
	d="
M147.973206,308.847778 
	C141.151108,308.525879 134.334488,307.780365 127.189941,306.866028 
	C128.304062,305.800079 129.746140,304.902954 131.594116,304.002930 
	C132.000000,304.000000 131.996750,303.997467 131.996750,303.997467 
	C135.872925,304.945129 139.716141,306.139984 143.648758,306.664642 
	C144.618042,306.793976 145.878387,304.741577 147.650742,303.090576 
	C147.775650,305.122009 147.877182,306.773071 147.973206,308.847778 
z"/>
<path fill="#EFEFEF" opacity="1.000000" stroke="none" 
	d="
M283.159912,245.225693 
	C279.401672,250.391052 275.579376,255.196075 271.449615,260.151245 
	C270.033264,259.376953 268.924377,258.452515 267.186371,257.003632 
	C269.533386,255.544266 272.040588,254.497009 273.844666,252.731323 
	C276.002655,250.619293 277.484283,247.832077 279.409424,245.459473 
	C280.337921,244.315140 281.327454,241.590683 283.159912,245.225693 
z"/>
<path fill="#0F0F0F" opacity="1.000000" stroke="none" 
	d="
M249.571518,60.262794 
	C247.699326,60.567539 245.606873,60.606068 243.514404,60.645393 
	C243.348236,60.648514 243.144012,60.722847 243.022339,60.652260 
	C242.326630,60.248604 241.021591,59.737762 241.061432,59.396011 
	C241.745911,53.525604 234.370193,53.136677 233.922852,48.109840 
	C239.266724,51.932339 244.308975,55.964561 249.571518,60.262794 
z"/>
<path fill="#EFEFEF" opacity="1.000000" stroke="none" 
	d="
M239.038086,24.255774 
	C244.973404,28.031250 250.896927,32.187313 256.983856,36.640938 
	C248.646988,36.461281 243.261902,31.395397 239.038086,24.255774 
z"/>
<path fill="#EFEFEF" opacity="1.000000" stroke="none" 
	d="
M262.197723,41.743912 
	C266.850922,45.984505 271.431061,50.621822 276.099945,55.589539 
	C274.433228,54.938774 272.709351,53.894184 270.911346,52.998287 
	C269.671722,52.380611 268.329498,51.968765 266.794220,52.260170 
	C265.265686,50.167248 263.737122,48.074326 262.208557,45.981400 
	C261.776825,46.206757 261.345093,46.432110 260.913361,46.657467 
	C261.317108,45.151852 261.720886,43.646240 262.197723,41.743912 
z"/>
<path fill="#F2F2F2" opacity="1.000000" stroke="none" 
	d="
M119.086952,102.922569 
	C115.605484,103.611412 112.312012,103.996010 108.624184,104.493477 
	C107.193222,100.254097 111.318230,99.426239 113.538673,97.938408 
	C114.812531,97.084824 117.754135,98.613304 119.859406,99.323120 
	C120.017006,99.376259 119.485901,101.472076 119.086952,102.922569 
z"/>
<path fill="#EAEAEA" opacity="1.000000" stroke="none" 
	d="
M65.173386,60.049503 
	C62.857986,63.063705 60.234966,65.898285 57.304333,68.862938 
	C53.432529,66.355377 56.909595,64.658813 58.142639,62.308655 
	C57.152145,61.888187 56.298603,61.525856 55.261814,61.085739 
	C57.985641,60.285240 60.500477,59.546158 63.015308,58.807079 
	C63.021603,58.305008 63.027897,57.802937 63.034191,57.300861 
	C63.644714,58.157200 64.255241,59.013542 65.173386,60.049503 
z"/>
<path fill="#F0F0F0" opacity="1.000000" stroke="none" 
	d="
M107.734543,32.390808 
	C103.566536,34.553421 99.681473,36.294182 95.424622,38.082542 
	C94.681915,34.647793 96.603775,33.029560 99.701645,32.221401 
	C101.732559,31.691587 103.674355,30.762657 105.724632,30.398146 
	C106.375267,30.282473 107.246956,31.410215 107.734543,32.390808 
z"/>
<path fill="#111111" opacity="1.000000" stroke="none" 
	d="
M27.502371,70.904991 
	C24.717947,65.675827 27.687294,61.042873 34.713680,60.008835 
	C32.667770,63.585293 30.225624,67.158775 27.502371,70.904991 
z"/>
<path fill="#F0F0F0" opacity="1.000000" stroke="none" 
	d="
M55.253487,270.639771 
	C52.374035,268.510895 49.708706,266.118805 46.909935,263.414978 
	C50.319023,264.116669 53.861561,265.130096 57.404099,266.143524 
	C56.758598,267.554535 56.113102,268.965546 55.253487,270.639771 
z"/>
<path fill="#050407" opacity="1.000000" stroke="none" 
	d="
M106.728226,88.130440 
	C105.747482,86.438675 105.193565,84.738289 104.418030,82.357582 
	C108.614410,83.053986 113.736633,79.872498 113.001907,87.514267 
	C111.052200,87.985298 109.103630,88.053558 106.728226,88.130440 
z"/>
<path fill="#F7F7F7" opacity="1.000000" stroke="none" 
	d="
M123.934204,202.548615 
	C123.335434,202.984116 122.668625,203.073471 121.663773,203.153931 
	C120.201057,202.555481 119.027351,202.041748 117.965759,201.354736 
	C116.940681,200.691376 115.955017,199.917755 115.147041,199.017548 
	C115.014717,198.870132 115.916008,197.263321 116.293030,197.281769 
	C117.990982,197.364914 119.944237,197.365036 121.279076,198.218414 
	C122.493927,198.995102 123.030571,200.832581 123.934204,202.548615 
z"/>
<path fill="#F2F2F2" opacity="1.000000" stroke="none" 
	d="
M26.132675,236.028595 
	C24.787458,234.582504 23.796886,233.094696 22.731232,231.322327 
	C22.870092,229.645798 23.084040,228.253845 23.493015,225.593033 
	C25.242783,227.880020 26.315491,229.282074 27.694099,230.842072 
	C28.000000,231.000000 27.998566,230.998703 27.998566,230.998703 
	C28.134892,232.855347 30.021513,235.242279 26.132675,236.028595 
z"/>
<path fill="#0E0E0E" opacity="1.000000" stroke="none" 
	d="
M85.191177,44.861721 
	C87.890266,46.718525 87.525169,48.680023 84.971306,49.703472 
	C82.654770,50.631813 80.011909,50.745865 77.187775,51.075325 
	C79.530983,48.931244 82.199333,46.930752 85.191177,44.861721 
z"/>
<path fill="#EFEFEF" opacity="1.000000" stroke="none" 
	d="
M83.206146,20.102917 
	C86.042099,18.297201 89.148651,16.623535 92.618767,14.951384 
	C92.571648,16.914391 92.160950,18.875881 91.375122,20.918692 
	C91.000000,21.000013 91.003014,21.002934 91.003014,21.002934 
	C90.055435,20.697422 89.121841,20.200592 88.157089,20.130054 
	C86.607811,20.016783 85.037910,20.185440 83.206146,20.102917 
z"/>
<path fill="#ECECEC" opacity="1.000000" stroke="none" 
	d="
M44.092659,50.886902 
	C45.795532,48.526390 47.948318,46.206326 50.368813,43.806770 
	C51.293858,50.231049 50.677883,50.958832 44.092659,50.886902 
z"/>
<path fill="#0E0E0E" opacity="1.000000" stroke="none" 
	d="
M248.441345,280.765137 
	C249.806381,281.671143 250.781433,282.714142 251.832962,283.838989 
	C249.306885,284.947693 247.051254,285.937714 244.451172,287.078888 
	C244.302124,286.841736 243.803452,286.048218 243.172989,284.804047 
	C244.117981,283.518066 245.194794,282.682770 246.271606,281.847473 
	C246.481598,281.794128 246.691589,281.740814 247.137115,281.462280 
	C247.372635,281.237030 247.332642,281.310791 247.332642,281.310791 
	C247.572220,281.174591 247.811783,281.038361 248.441345,280.765137 
z"/>
<path fill="#090101" opacity="1.000000" stroke="none" 
	d="
M200.001770,146.053177 
	C198.927292,147.034286 198.001633,148.361877 196.738739,148.904327 
	C195.324005,149.511993 193.603973,149.408936 191.950851,149.955841 
	C190.367325,149.830673 188.849747,149.364777 187.321869,148.228088 
	C188.325943,147.222748 189.340332,146.888184 190.714783,146.678955 
	C191.717896,146.533432 192.360947,146.262558 193.436249,145.910919 
	C195.912933,145.904495 197.957352,145.978836 200.001770,146.053177 
z"/>
<path fill="#EFEFEF" opacity="1.000000" stroke="none" 
	d="
M188.975311,306.177307 
	C186.043350,307.097107 182.939865,307.655762 179.421814,308.153076 
	C180.326721,303.709717 183.867004,302.887390 188.975311,306.177307 
z"/>
<path fill="#F2F2F2" opacity="1.000000" stroke="none" 
	d="
M263.105835,267.751587 
	C261.602631,269.734650 259.791351,271.445557 257.720276,273.232971 
	C257.059784,272.857117 256.232117,272.266418 256.326691,271.974640 
	C257.013062,269.857330 257.885376,267.800293 258.911011,265.182861 
	C260.170410,265.927032 261.484100,266.703247 263.105835,267.751587 
z"/>
<path fill="#111111" opacity="1.000000" stroke="none" 
	d="
M49.631268,78.999924 
	C48.925514,81.829109 47.939312,84.821091 46.810215,87.758141 
	C46.770035,87.862648 45.315544,87.423454 44.237820,87.108398 
	C45.746078,84.370659 47.536724,81.762184 49.631268,78.999924 
z"/>
<path fill="#EBEBEB" opacity="1.000000" stroke="none" 
	d="
M129.070648,25.530998 
	C126.756317,26.653139 124.262711,27.360384 121.384499,28.033237 
	C121.626266,23.468882 123.284027,22.863304 129.070648,25.530998 
z"/>
<path fill="#101010" opacity="1.000000" stroke="none" 
	d="
M262.293091,74.507263 
	C260.985626,74.293198 259.431641,73.961868 258.175995,73.162155 
	C256.653229,72.192291 255.382370,70.826874 253.607529,69.290764 
	C254.252655,68.896873 255.084610,68.388924 256.257935,67.833374 
	C258.459137,69.917992 260.318970,72.050201 262.293091,74.507263 
z"/>
<path fill="#EFEFEF" opacity="1.000000" stroke="none" 
	d="
M88.891426,42.696884 
	C88.665512,42.755569 88.439590,42.814262 87.864395,42.897232 
	C87.262123,41.094635 87.009132,39.267754 86.756134,37.440876 
	C88.360458,38.181011 89.964783,38.921146 91.706772,40.130981 
	C90.860100,41.299419 89.875763,41.998150 88.891426,42.696884 
z"/>
<path fill="#EFEFEF" opacity="1.000000" stroke="none" 
	d="
M9.892212,200.265533 
	C8.834215,197.993408 7.932978,195.373566 7.063335,192.373779 
	C11.551869,193.494705 12.418910,195.820465 9.892212,200.265533 
z"/>
<path fill="#131313" opacity="1.000000" stroke="none" 
	d="
M210.748795,159.473114 
	C214.573486,158.959763 218.119659,159.496658 218.930328,164.806137 
	C216.253693,163.395096 213.598190,161.579163 210.748795,159.473114 
z"/>
<path fill="#0E0E0E" opacity="1.000000" stroke="none" 
	d="
M89.079094,43.003235 
	C89.875763,41.998150 90.860100,41.299419 92.008743,40.340355 
	C92.173058,40.080029 92.569725,40.080105 92.967484,39.952789 
	C93.635536,39.684631 93.838539,39.477749 93.974243,39.204819 
	C94.139275,39.157749 94.304314,39.110676 94.715805,38.989281 
	C94.647743,40.799049 94.333221,42.683144 93.932106,45.085983 
	C91.914246,44.317650 90.590500,43.813618 89.079094,43.003235 
z"/>
<path fill="#EAEAEA" opacity="1.000000" stroke="none" 
	d="
M207.992371,9.494905 
	C209.879333,9.714292 211.768616,10.325290 213.903152,11.147022 
	C212.791992,12.174787 211.435577,12.991816 210.079163,13.808847 
	C209.384338,12.501405 208.689514,11.193961 207.992371,9.494905 
z"/>
<path fill="#EDEDED" opacity="1.000000" stroke="none" 
	d="
M246.111465,281.476685 
	C245.194794,282.682770 244.117981,283.518066 242.894699,284.617065 
	C242.028687,285.237000 241.309174,285.593231 240.288788,285.894745 
	C240.638077,280.793121 241.937714,279.761383 246.111465,281.476685 
z"/>
<path fill="#F2F2F2" opacity="1.000000" stroke="none" 
	d="
M241.023438,192.947327 
	C242.209732,194.493851 243.243637,196.401443 244.319946,198.616455 
	C243.851273,199.553543 243.340195,200.183212 242.414566,200.906448 
	C242.000000,201.000000 241.999390,200.999771 241.999390,200.999771 
	C241.623291,198.435989 241.247177,195.872208 241.023438,192.947327 
z"/>
<path fill="#101010" opacity="1.000000" stroke="none" 
	d="
M32.257168,246.435699 
	C31.536011,247.348740 30.769415,247.986557 30.002819,248.624390 
	C29.627218,246.678452 29.251616,244.732513 28.925468,242.426987 
	C30.053858,243.431763 31.132792,244.796127 32.257168,246.435699 
z"/>
<path fill="#0F0F0F" opacity="1.000000" stroke="none" 
	d="
M253.176575,63.863426 
	C252.532242,65.286636 251.792267,66.434349 251.052307,67.582069 
	C250.569046,67.464981 250.085785,67.347893 249.602524,67.230804 
	C249.712067,65.361961 249.821594,63.493122 249.970886,61.258781 
	C251.034058,61.791500 252.057495,62.689716 253.176575,63.863426 
z"/>
<path fill="#131313" opacity="1.000000" stroke="none" 
	d="
M203.813263,155.465027 
	C204.987335,154.433701 206.363388,153.683350 208.463730,152.538040 
	C208.682312,154.598068 208.826187,155.954041 208.957840,157.720291 
	C207.302170,157.335709 205.658722,156.540848 203.813263,155.465027 
z"/>
<path fill="#DDDDDD" opacity="1.000000" stroke="none" 
	d="
M70.734055,54.296616 
	C70.698288,54.622204 70.435455,54.505398 70.183914,54.628319 
	C69.828522,54.844162 69.724670,54.937077 69.620827,55.029995 
	C69.918480,54.929592 70.216125,54.829193 70.513779,54.728790 
	C71.222549,56.544231 71.428413,58.047672 68.306381,57.770252 
	C68.071892,56.255665 68.195953,54.679832 68.320007,53.104000 
	C69.136612,53.393009 69.953217,53.682018 70.734055,54.296616 
z"/>
<path fill="#A46E38" opacity="1.000000" stroke="none" 
	d="
M190.354706,146.553619 
	C189.340332,146.888184 188.325943,147.222748 186.926971,147.957031 
	C186.542389,148.356750 186.399094,148.278778 186.570969,147.814621 
	C185.830338,146.776917 184.917831,146.203369 184.301819,145.423157 
	C186.737518,145.338898 188.876709,145.461334 190.830933,145.812805 
	C190.548859,146.212448 190.451782,146.383041 190.354706,146.553619 
z"/>
<path fill="#190807" opacity="1.000000" stroke="none" 
	d="
M184.005325,145.629837 
	C184.917831,146.203369 185.830338,146.776917 186.551743,147.755127 
	C183.874512,147.745102 181.388382,147.330429 178.485077,146.846985 
	C178.199921,146.480438 178.316498,146.176743 178.770233,145.666718 
	C180.750336,145.520828 182.377823,145.575333 184.005325,145.629837 
z"/>
<path fill="#101010" opacity="1.000000" stroke="none" 
	d="
M222.082779,39.943939 
	C221.372864,41.492924 220.494095,42.839012 219.615311,44.185101 
	C219.126938,43.903149 218.638550,43.621201 218.150162,43.339252 
	C218.729965,42.115479 219.309753,40.891708 219.950089,39.320137 
	C220.645065,39.228569 221.279495,39.484802 222.082779,39.943939 
z"/>
<path fill="#EFEFEF" opacity="1.000000" stroke="none" 
	d="
M168.987534,309.145538 
	C168.553055,309.283844 168.118576,309.422150 167.358109,309.416901 
	C168.478516,307.730377 169.924896,306.187439 171.371277,304.644470 
	C171.832977,305.036224 172.294693,305.427979 172.756393,305.819763 
	C172.535019,306.669739 172.313644,307.519745 171.702301,308.668030 
	C171.312332,308.966309 171.167236,309.035614 171.069702,308.661438 
	C170.310623,308.573334 169.649078,308.859436 168.987534,309.145538 
z"/>
<path fill="#EBEBEB" opacity="1.000000" stroke="none" 
	d="
M116.941284,28.851263 
	C115.545158,29.792713 114.110962,30.402237 112.336212,30.982922 
	C112.733932,28.333298 113.935822,26.647007 116.941284,28.851263 
z"/>
<path fill="#EDEDED" opacity="1.000000" stroke="none" 
	d="
M252.688766,276.778625 
	C252.189819,277.662384 251.434250,278.348724 250.369659,279.089417 
	C249.881729,277.290833 249.702850,275.437897 249.398422,272.284637 
	C250.885437,274.390686 251.658783,275.485962 252.688766,276.778625 
z"/>
<path fill="#1B1B1B" opacity="1.000000" stroke="none" 
	d="
M95.223511,13.567265 
	C95.344383,9.878611 95.348122,9.875640 98.100983,11.531149 
	C97.324089,12.441872 96.410614,13.001232 95.223511,13.567265 
z"/>
<path fill="#EAEAEA" opacity="1.000000" stroke="none" 
	d="
M39.503525,255.470398 
	C38.545227,255.068756 37.797993,254.365417 37.070484,253.314835 
	C37.938648,252.383347 38.787090,251.799088 40.092957,250.899857 
	C39.961948,252.377960 39.838268,253.773315 39.503525,255.470398 
z"/>
<path fill="#EFEFEF" opacity="1.000000" stroke="none" 
	d="
M257.942200,38.107643 
	C258.815033,38.272717 259.395020,38.641384 260.098877,39.243328 
	C259.471771,39.893902 258.720764,40.311203 257.969757,40.728500 
	C257.862946,39.922749 257.756165,39.116993 257.942200,38.107643 
z"/>
<path fill="#EDEDED" opacity="1.000000" stroke="none" 
	d="
M245.284515,275.209412 
	C245.928421,275.849792 246.251465,276.540955 246.574509,277.232147 
	C246.160767,277.309387 245.747025,277.386627 245.333282,277.463898 
	C245.210083,276.729340 245.086868,275.994751 245.284515,275.209412 
z"/>
<path fill="#EAEAEA" opacity="1.000000" stroke="none" 
	d="
M203.023529,8.228292 
	C203.880951,7.925305 204.745178,7.983974 205.869690,8.251932 
	C205.401596,9.156614 204.673203,9.852006 203.944824,10.547398 
	C203.639984,9.894914 203.335144,9.242431 203.023529,8.228292 
z"/>
<path fill="#111111" opacity="1.000000" stroke="none" 
	d="
M36.998722,57.828552 
	C36.749046,56.977470 36.720409,56.015057 36.691772,55.052643 
	C37.175682,55.190929 37.659592,55.329216 38.212479,55.782413 
	C37.927555,56.637283 37.573658,57.177250 36.998722,57.828552 
z"/>
<path fill="#131313" opacity="1.000000" stroke="none" 
	d="
M200.913635,154.008606 
	C201.127411,153.369095 201.502930,152.939896 201.878418,152.510696 
	C202.252258,153.070892 202.626099,153.631088 203.004669,154.548462 
	C202.364746,154.676743 201.720047,154.447830 200.913635,154.008606 
z"/>
<path fill="#EAEAEA" opacity="1.000000" stroke="none" 
	d="
M42.992470,258.623413 
	C42.220512,258.294769 41.450321,257.566559 40.502525,256.566895 
	C41.214691,256.938263 42.104462,257.581024 42.992470,258.623413 
z"/>
<path fill="#F2F2F2" opacity="1.000000" stroke="none" 
	d="
M266.017761,265.059265 
	C265.826721,265.796478 265.210266,266.514526 264.333557,267.346008 
	C264.579651,266.653015 265.085999,265.846558 266.017761,265.059265 
z"/>
<path fill="#F7F7F7" opacity="1.000000" stroke="none" 
	d="
M115.539833,204.385910 
	C115.654686,203.941711 115.936813,203.672256 116.218948,203.402802 
	C116.330475,203.519592 116.442001,203.636398 116.553520,203.753204 
	C116.271385,204.022339 115.989250,204.291489 115.539833,204.385910 
z"/>
<path fill="#F2F2F2" opacity="1.000000" stroke="none" 
	d="
M28.000679,231.000671 
	C28.302214,230.493805 28.603069,229.986252 28.903923,229.478683 
	C29.111856,229.659012 29.319792,229.839340 29.527725,230.019684 
	C29.206553,230.322571 28.885387,230.625458 28.281395,230.963531 
	C27.998566,230.998703 28.000000,231.000000 28.000679,231.000671 
z"/>
<path fill="#ECECEC" opacity="1.000000" stroke="none" 
	d="
M213.036789,299.195831 
	C213.013107,299.794861 212.774170,299.962738 212.206406,299.945068 
	C211.591751,299.417938 211.202896,298.929688 210.180771,297.646240 
	C211.671494,298.333557 212.298050,298.622437 213.036789,299.195831 
z"/>
<path fill="#1B1B1B" opacity="1.000000" stroke="none" 
	d="
M122.234642,4.687039 
	C122.534546,4.267403 123.111374,3.910009 123.840561,3.765211 
	C123.499138,4.234965 123.005348,4.492123 122.234642,4.687039 
z"/>
<path fill="#EBEBEB" opacity="1.000000" stroke="none" 
	d="
M121.118744,285.289612 
	C121.404816,285.207214 121.792671,285.299805 121.867149,285.505737 
	C121.932304,285.685883 121.645081,285.993469 121.513535,286.244751 
	C121.370476,286.001129 121.227417,285.757477 121.118744,285.289612 
z"/>
<path fill="#ECECEC" opacity="1.000000" stroke="none" 
	d="
M211.720535,296.876495 
	C211.250641,296.777679 211.004028,296.639496 210.757416,296.501312 
	C211.003601,296.363678 211.310349,296.065063 211.480682,296.129150 
	C211.693680,296.209229 211.794540,296.587555 211.720535,296.876495 
z"/>
<path fill="#EFEFEF" opacity="1.000000" stroke="none" 
	d="
M90.999039,20.998610 
	C90.653625,21.244385 90.309189,21.491566 89.964737,21.738747 
	C89.879166,21.616343 89.793594,21.493938 89.708023,21.371532 
	C89.981087,21.256874 90.254143,21.142218 90.765106,21.015247 
	C91.003014,21.002934 91.000000,21.000013 90.999039,20.998610 
z"/>
<path fill="#EAEAEA" opacity="1.000000" stroke="none" 
	d="
M61.531242,55.548813 
	C61.478188,55.580490 61.584301,55.517132 61.531242,55.548813 
z"/>
<path fill="#ECECEC" opacity="1.000000" stroke="none" 
	d="
M51.614975,44.644321 
	C51.851257,44.730564 52.086533,44.880001 52.321808,45.029434 
	C52.138920,45.043621 51.956032,45.057808 51.632156,44.904751 
	C51.491169,44.737507 51.613964,44.707516 51.614975,44.644321 
z"/>
<path fill="#EFEFEF" opacity="1.000000" stroke="none" 
	d="
M258.548706,44.466702 
	C258.580597,44.520790 258.516785,44.412613 258.548706,44.466702 
z"/>
<path fill="#EFEFEF" opacity="1.000000" stroke="none" 
	d="
M260.451599,43.532425 
	C260.418915,43.477486 260.484314,43.587368 260.451599,43.532425 
z"/>
<path fill="#020202" opacity="1.000000" stroke="none" 
	d="
M247.285217,281.094574 
	C247.332642,281.310791 247.372635,281.237030 247.397568,281.267914 
	C247.532654,281.197449 247.642792,281.096130 247.752960,280.994812 
	C247.581238,280.955994 247.409515,280.917175 247.285217,281.094574 
z"/>
<path fill="#020202" opacity="1.000000" stroke="none" 
	d="
M93.710556,39.141212 
	C93.838539,39.477749 93.635536,39.684631 93.160416,39.906834 
	C93.119362,39.684666 93.283119,39.381134 93.710556,39.141212 
z"/>
<path fill="#ECECEC" opacity="1.000000" stroke="none" 
	d="
M204.198929,301.542175 
	C204.034592,301.713318 204.014740,301.639832 203.986115,301.661560 
	C204.092728,301.579224 204.227997,301.475098 204.198929,301.542175 
z"/>
<path fill="#EFEFEF" opacity="1.000000" stroke="none" 
	d="
M132.001236,304.001587 
	C132.090378,303.965668 132.178284,303.928162 132.131470,303.944061 
	C131.996750,303.997467 132.000000,304.000000 132.001236,304.001587 
z"/>
<path fill="#EFEFEF" opacity="1.000000" stroke="none" 
	d="
M274.534546,58.555042 
	C274.475769,58.591270 274.593353,58.518814 274.534546,58.555042 
z"/>
<path fill="#EFEFEF" opacity="1.000000" stroke="none" 
	d="
M273.470093,60.451218 
	C273.522308,60.420425 273.417908,60.482014 273.470093,60.451218 
z"/>
<path fill="#F2F2F2" opacity="1.000000" stroke="none" 
	d="
M242.000153,201.000305 
	C241.908325,201.036240 241.816360,201.071869 241.861877,201.053635 
	C241.999390,200.999771 242.000000,201.000000 242.000153,201.000305 
z"/>
<path fill="#FBFBFB" opacity="1.000000" stroke="none" 
	d="
M169.251770,309.211060 
	C169.649078,308.859436 170.310623,308.573334 171.036987,308.633484 
	C170.573212,309.078705 170.044601,309.177612 169.251770,309.211060 
z"/>
<path fill="#D97F2A" opacity="1.000000" stroke="none" 
	d="
M184.301819,145.423157 
	C182.377823,145.575333 180.750336,145.520828 178.791626,145.423370 
	C169.526886,145.259247 160.593643,145.104523 151.659744,145.027451 
	C144.450760,144.965256 144.081299,144.667923 144.062302,137.504913 
	C144.057953,135.867416 144.294800,134.229279 144.992004,132.580841 
	C145.706421,134.377365 146.120941,136.212631 145.937027,137.985840 
	C145.533279,141.878342 146.901077,143.467773 150.945831,143.062332 
	C155.214279,142.634460 159.528000,142.480743 163.820602,142.500381 
	C190.098785,142.620590 216.376572,142.856369 242.654678,142.890091 
	C243.793015,142.891556 245.294800,141.520050 246.012146,140.395660 
	C249.707291,134.603836 243.458572,131.911987 241.616058,127.942223 
	C240.858429,126.309883 237.745850,125.770554 236.617569,125.197685 
	C236.617569,123.392136 237.315063,121.117485 236.502441,120.237732 
	C231.828537,115.177750 226.764923,110.498772 219.849777,109.380035 
	C218.824951,107.163040 217.883224,105.125832 217.261887,103.045769 
	C217.794571,102.968681 218.006882,102.934456 218.497192,102.942520 
	C219.143234,103.042824 219.511276,103.100838 219.930939,103.113373 
	C219.982559,103.067886 219.853088,103.114471 219.962097,103.350906 
	C220.383820,103.716179 220.696548,103.845024 221.186752,104.223740 
	C222.247574,104.980598 223.130920,105.487595 224.162781,106.270966 
	C225.190170,107.082047 226.069061,107.616745 227.015381,108.264450 
	C227.082840,108.377449 227.335968,108.449600 227.512314,108.736038 
	C229.254120,110.261871 230.819595,111.501259 232.586746,112.960724 
	C233.779755,114.163025 234.771072,115.145241 235.922729,116.407974 
	C237.316879,117.861862 238.550690,119.035225 239.789902,120.129410 
	C239.795303,120.050240 239.765091,120.212662 239.860992,120.534042 
	C241.906021,123.258926 243.855164,125.662415 245.881271,128.364639 
	C246.571609,129.474762 247.184982,130.286148 247.861847,131.437714 
	C248.975235,133.794968 250.025116,135.812042 251.057495,138.146759 
	C251.344238,138.990860 251.648453,139.517303 252.008301,140.360397 
	C252.029572,141.102890 251.995193,141.528732 251.735611,142.123016 
	C251.252319,142.783295 250.994232,143.275101 250.461761,143.857422 
	C249.800735,144.343796 249.414078,144.739670 248.815170,145.315567 
	C248.072876,145.662109 247.542831,145.828629 246.678635,145.912735 
	C245.894699,145.897125 245.444931,145.963943 244.995148,146.030746 
	C230.304214,145.973969 215.613281,145.917206 200.462067,145.956802 
	C197.957352,145.978836 195.912933,145.904495 193.112610,145.807632 
	C191.909790,145.717987 191.462845,145.650864 191.015915,145.583740 
	C188.876709,145.461334 186.737518,145.338898 184.301819,145.423157 
z"/>
<path fill="#050407" opacity="1.000000" stroke="none" 
	d="
M247.798340,131.097534 
	C247.184982,130.286148 246.571609,129.474762 246.190918,128.230042 
	C247.726181,124.621704 244.255173,120.668221 239.765091,120.212662 
	C239.765091,120.212662 239.795303,120.050240 239.861053,119.730858 
	C239.953232,118.607574 239.979660,117.803680 240.006104,116.999779 
	C245.720856,119.305550 251.435608,121.611313 258.362244,124.406052 
	C255.252563,126.511154 253.740646,127.534630 251.418442,129.106644 
	C254.124146,129.748581 255.899963,130.169891 257.675781,130.591202 
	C257.241699,130.808731 256.807648,131.026245 256.373566,131.243774 
	C257.101349,134.226868 258.141449,137.177444 258.456635,140.203522 
	C258.701782,142.557022 258.043640,145.004608 257.717438,148.062286 
	C255.472412,147.783005 253.598389,147.549881 251.360413,146.815948 
	C250.985229,145.858093 250.973999,145.401062 250.977112,144.962158 
	C250.991455,144.980301 250.947830,144.983322 251.182526,144.867645 
	C251.600616,144.462463 251.784012,144.172943 251.996216,143.660324 
	C252.025040,143.437210 252.230682,143.037018 252.576889,142.938156 
	C254.585037,138.593231 252.129669,132.967545 247.798340,131.097534 
z"/>
<path fill="#030306" opacity="1.000000" stroke="none" 
	d="
M224.014267,105.994583 
	C223.130920,105.487595 222.247574,104.980598 221.067993,103.994400 
	C220.465546,103.381622 220.159317,103.248047 219.853088,103.114471 
	C219.853088,103.114471 219.982559,103.067886 219.913818,102.742348 
	C217.458603,101.349411 215.072128,100.282005 212.401733,99.136276 
	C211.552124,98.892052 210.986450,98.726151 210.227722,98.367973 
	C209.685501,98.105110 209.336319,98.034523 208.840073,97.789810 
	C208.438202,97.447121 208.204376,97.253250 207.956589,96.711296 
	C207.279877,95.920273 206.638107,95.452026 205.996338,94.983788 
	C205.658768,90.378372 207.990372,90.270432 211.117889,92.121269 
	C212.791809,93.111877 214.192200,94.564674 214.646088,94.935280 
	C219.642059,94.508362 223.551636,94.174278 228.386383,93.761131 
	C226.118469,98.869286 227.801254,101.329552 231.569092,102.924240 
	C232.249908,103.212395 232.524521,104.460289 232.837524,105.875366 
	C232.125504,106.995361 231.562668,107.505074 230.538300,108.020828 
	C229.163193,108.167778 228.249573,108.308685 227.335968,108.449600 
	C227.335968,108.449600 227.082840,108.377449 226.990387,107.905991 
	C225.936707,106.954552 224.975479,106.474571 224.014267,105.994583 
z"/>
<path fill="#060302" opacity="1.000000" stroke="none" 
	d="
M145.061295,87.838867 
	C144.592957,87.850639 144.124603,87.862419 143.322205,87.981148 
	C142.218109,88.051506 141.448105,88.014915 140.305038,87.882935 
	C139.463806,86.287689 138.923462,84.805435 138.551987,83.282005 
	C138.290253,82.208549 138.257904,81.079155 138.123138,79.974739 
	C139.261688,80.012909 141.096222,79.625664 141.422867,80.160080 
	C143.195938,83.060890 145.498154,82.332687 148.223099,82.179375 
	C151.547638,81.992332 155.518417,80.433105 158.107681,84.610603 
	C158.520798,85.277130 160.986801,84.435204 162.376526,84.789558 
	C164.307037,85.281784 166.117310,86.245483 167.627960,87.478043 
	C166.517914,87.964462 165.758957,87.980186 164.715454,87.687912 
	C157.974365,87.532913 151.517838,87.685890 145.061295,87.838867 
z"/>
<path fill="#D97F2A" opacity="1.000000" stroke="none" 
	d="
M165.000015,87.995903 
	C165.758957,87.980186 166.517914,87.964462 167.640625,87.838882 
	C168.747223,87.857582 169.490036,87.986137 170.730042,88.437973 
	C175.871948,89.751457 180.516647,90.741661 184.973679,92.091736 
	C182.506210,92.904732 180.153061,93.947968 177.963486,93.675697 
	C174.490250,93.243797 171.112106,91.980591 167.722458,90.972481 
	C166.103226,90.490898 164.549988,89.787392 163.271255,89.088455 
	C164.050446,88.660301 164.525223,88.328102 165.000015,87.995903 
z"/>
<path fill="#060302" opacity="1.000000" stroke="none" 
	d="
M172.996185,87.008377 
	C174.053986,85.775391 175.111786,84.542412 176.169586,83.309425 
	C175.952301,83.002258 175.735031,82.695091 175.517761,82.387917 
	C176.292862,82.252846 177.104248,82.221581 177.837097,81.965561 
	C182.041977,80.496590 184.748001,80.763847 183.299301,86.361870 
	C183.162933,86.888824 183.695236,87.588829 183.557755,88.537430 
	C179.797684,88.247040 176.396942,87.627708 172.996185,87.008377 
z"/>
<path fill="#27130A" opacity="1.000000" stroke="none" 
	d="
M172.696075,87.032288 
	C176.396942,87.627708 179.797684,88.247040 183.603790,88.899231 
	C184.448242,88.959015 184.887375,88.985939 185.832520,89.254364 
	C186.894669,89.626656 187.450790,89.757446 188.006912,89.888229 
	C188.641327,90.237564 189.275726,90.586899 189.581390,91.244598 
	C188.490555,91.732208 187.728455,91.911453 186.672485,92.000473 
	C185.972855,91.850777 185.567108,91.791321 185.161362,91.731873 
	C180.516647,90.741661 175.871948,89.751457 171.107788,88.394882 
	C171.457535,87.704399 171.926743,87.380295 172.696075,87.032288 
z"/>
<path fill="#050407" opacity="1.000000" stroke="none" 
	d="
M230.999817,108.014786 
	C231.562668,107.505074 232.125504,106.995361 232.844788,106.242172 
	C234.761169,107.661446 236.521118,109.324181 238.749908,111.211487 
	C239.418701,111.708298 239.679352,111.896408 240.000763,112.000374 
	C239.669464,113.097610 239.338181,114.194847 238.598969,115.646866 
	C237.381485,116.043579 236.571945,116.085518 235.762405,116.127457 
	C234.771072,115.145241 233.779755,114.163025 232.741913,112.594269 
	C232.130203,110.676750 231.565002,109.345764 230.999817,108.014786 
z"/>
<path fill="#BC763D" opacity="1.000000" stroke="none" 
	d="
M192.006653,91.934036 
	C192.172760,91.890892 192.338867,91.847740 193.081177,91.968483 
	C195.091507,92.469612 196.525635,92.806847 197.959763,93.144081 
	C200.397781,94.077980 202.835815,95.011887 205.783356,96.215767 
	C206.554504,96.723602 206.816132,96.961464 206.876205,97.408844 
	C206.115997,97.742455 205.557327,97.866562 204.828339,97.748550 
	C204.101089,97.357742 203.544128,97.209061 202.696869,96.926521 
	C201.608459,96.526634 200.810379,96.260605 199.841064,95.748810 
	C199.105865,95.346901 198.541885,95.190758 197.649994,95.021812 
	C196.884766,94.999535 196.447449,94.990059 195.803589,94.728653 
	C194.400223,93.629150 193.203430,92.781593 192.006653,91.934036 
z"/>
<path fill="#050407" opacity="1.000000" stroke="none" 
	d="
M244.996445,146.443130 
	C245.444931,145.963943 245.894699,145.897125 246.728104,146.257202 
	C248.074677,147.122498 249.037628,147.560898 250.000580,147.999283 
	C249.207520,149.303970 248.414459,150.608643 247.621399,151.913315 
	C246.746841,150.227371 245.872299,148.541443 244.996445,146.443130 
z"/>
<path fill="#D97F2A" opacity="1.000000" stroke="none" 
	d="
M191.690582,91.811981 
	C193.203430,92.781593 194.400223,93.629150 195.630585,94.969864 
	C191.815170,96.788437 189.474152,94.224518 186.966370,92.090706 
	C187.728455,91.911453 188.490555,91.732208 189.644196,91.521118 
	C190.481995,91.556145 190.928253,91.623032 191.690582,91.811981 
z"/>
<path fill="#090101" opacity="1.000000" stroke="none" 
	d="
M250.110016,147.781342 
	C249.037628,147.560898 248.074677,147.122498 247.062256,146.339630 
	C247.542831,145.828629 248.072876,145.662109 249.140839,145.325790 
	C250.106766,145.085342 250.534760,145.014679 250.962753,144.944031 
	C250.973999,145.401062 250.985229,145.858093 250.998535,146.658020 
	C250.679443,147.104019 250.419052,147.291504 250.110016,147.781342 
z"/>
<path fill="#1C0B04" opacity="1.000000" stroke="none" 
	d="
M235.922729,116.407974 
	C236.571945,116.085518 237.381485,116.043579 238.596558,115.996460 
	C239.102539,116.316841 239.290253,116.580193 239.785675,116.890549 
	C239.979660,117.803680 239.953232,118.607574 239.855652,119.810028 
	C238.550690,119.035225 237.316879,117.861862 235.922729,116.407974 
z"/>
<path fill="#27130A" opacity="1.000000" stroke="none" 
	d="
M197.917603,92.784050 
	C196.525635,92.806847 195.091507,92.469612 193.337143,91.941093 
	C194.636414,91.974548 196.255936,92.199287 197.917603,92.784050 
z"/>
<path fill="#101010" opacity="1.000000" stroke="none" 
	d="
M215.842590,40.191746 
	C215.343369,40.690147 214.813690,40.883011 214.284012,41.075874 
	C214.346878,40.328217 214.409744,39.580555 214.472610,38.832901 
	C214.919113,39.184002 215.365616,39.535107 215.842590,40.191746 
z"/>
<path fill="#030306" opacity="1.000000" stroke="none" 
	d="
M240.245026,111.810638 
	C239.679352,111.896408 239.418701,111.708298 239.109070,111.217766 
	C239.447876,110.493294 239.896362,109.987114 240.344849,109.480942 
	C240.393005,110.194260 240.441147,110.907585 240.245026,111.810638 
z"/>
<path fill="#060302" opacity="1.000000" stroke="none" 
	d="
M187.967072,89.607071 
	C187.450790,89.757446 186.894669,89.626656 186.162445,89.262924 
	C186.633316,89.128624 187.280273,89.227264 187.967072,89.607071 
z"/>
<path fill="#27130A" opacity="1.000000" stroke="none" 
	d="
M207.077744,97.199333 
	C206.816132,96.961464 206.554504,96.723602 206.142792,96.266930 
	C205.994949,95.870796 205.997177,95.693481 205.997879,95.249985 
	C206.638107,95.452026 207.279877,95.920273 207.732529,96.776810 
	C207.543411,97.165108 207.077744,97.199333 207.077744,97.199333 
z"/>
<path fill="#F17C1A" opacity="1.000000" stroke="none" 
	d="
M206.876205,97.408844 
	C207.077744,97.199333 207.543411,97.165108 207.767471,97.099594 
	C208.204376,97.253250 208.438202,97.447121 208.814346,98.049889 
	C208.932922,98.658241 208.930145,98.832390 208.787994,99.164703 
	C209.090775,99.543961 209.532959,99.765053 209.987518,99.994431 
	C209.999893,100.002724 210.022232,100.022453 210.181305,100.267639 
	C210.887344,100.681221 211.434311,100.849625 211.990326,101.009560 
	C211.999390,101.001099 211.989670,101.023842 212.160263,101.267784 
	C212.890488,101.670143 213.450119,101.828560 214.423798,101.916702 
	C215.102249,101.754272 215.366638,101.662125 215.732605,101.562302 
	C215.834183,101.554626 215.988785,101.687317 216.063980,101.970779 
	C216.406616,102.532372 216.674057,102.810501 216.941498,103.088631 
	C217.883224,105.125832 218.824951,107.163040 219.849777,109.380035 
	C226.764923,110.498772 231.828537,115.177750 236.502441,120.237732 
	C237.315063,121.117485 236.617569,123.392136 236.617569,125.197685 
	C237.745850,125.770554 240.858429,126.309883 241.616058,127.942223 
	C243.458572,131.911987 249.707291,134.603836 246.012146,140.395660 
	C245.294800,141.520050 243.793015,142.891556 242.654678,142.890091 
	C216.376572,142.856369 190.098785,142.620590 163.820602,142.500381 
	C159.528000,142.480743 155.214279,142.634460 150.945831,143.062332 
	C146.901077,143.467773 145.533279,141.878342 145.937027,137.985840 
	C146.120941,136.212631 145.706421,134.377365 145.266525,132.281204 
	C144.986130,118.652359 145.002548,105.312538 145.422897,91.494522 
	C147.223785,90.402718 148.620743,89.789116 150.475128,89.107361 
	C154.943985,89.087608 158.955414,89.136009 162.966858,89.184410 
	C164.549988,89.787392 166.103226,90.490898 167.722458,90.972481 
	C171.112106,91.980591 174.490250,93.243797 177.963486,93.675697 
	C180.153061,93.947968 182.506210,92.904732 184.973679,92.091736 
	C185.567108,91.791321 185.972855,91.850777 186.672485,92.000473 
	C189.474152,94.224518 191.815170,96.788437 195.837158,95.221809 
	C196.447449,94.990059 196.884766,94.999535 197.687424,95.310448 
	C198.705948,95.739449 199.359131,95.867012 200.012299,95.994583 
	C200.810379,96.260605 201.608459,96.526634 202.870712,97.162651 
	C203.889481,97.685318 204.444061,97.837997 204.998657,97.990669 
	C205.557327,97.866562 206.115997,97.742455 206.876205,97.408844 
z"/>
<path fill="#27130A" opacity="1.000000" stroke="none" 
	d="
M163.271255,89.088455 
	C158.955414,89.136009 154.943985,89.087608 150.069489,89.024719 
	C147.835342,88.959671 146.464249,88.909119 145.093155,88.858566 
	C145.088165,88.688683 145.083160,88.518784 145.069733,88.093872 
	C151.517838,87.685890 157.974365,87.532913 164.715454,87.687912 
	C164.525223,88.328102 164.050446,88.660301 163.271255,89.088455 
z"/>
<path fill="#D97F2A" opacity="1.000000" stroke="none" 
	d="
M145.069000,89.221725 
	C146.464249,88.909119 147.835342,88.959671 149.612061,89.092865 
	C148.620743,89.789116 147.223785,90.402718 145.446869,91.029037 
	C145.059555,90.556137 145.052185,90.070503 145.069000,89.221725 
z"/>
<path fill="#190807" opacity="1.000000" stroke="none" 
	d="
M190.830933,145.812805 
	C191.462845,145.650864 191.909790,145.717987 192.680359,145.888397 
	C192.360947,146.262558 191.717896,146.533432 190.714783,146.678955 
	C190.451782,146.383041 190.548859,146.212448 190.830933,145.812805 
z"/>
<path fill="#FBFBFB" opacity="1.000000" stroke="none" 
	d="
M70.448761,54.679771 
	C70.216125,54.829193 69.918480,54.929592 69.620827,55.029995 
	C69.724670,54.937077 69.828522,54.844162 70.110756,54.624729 
	C70.289146,54.498215 70.383743,54.630756 70.448761,54.679771 
z"/>
<path fill="#1C0B04" opacity="1.000000" stroke="none" 
	d="
M239.860992,120.534042 
	C244.255173,120.668221 247.726181,124.621704 246.113953,127.931305 
	C243.855164,125.662415 241.906021,123.258926 239.860992,120.534042 
z"/>
<path fill="#1C0B04" opacity="1.000000" stroke="none" 
	d="
M247.861847,131.437714 
	C252.129669,132.967545 254.585037,138.593231 252.522903,142.664093 
	C252.068726,142.310776 252.014755,142.132675 251.960815,141.954559 
	C251.995193,141.528732 252.029572,141.102890 252.048279,140.043228 
	C251.713409,138.882629 251.394196,138.355881 251.074982,137.829117 
	C250.025116,135.812042 248.975235,133.794968 247.861847,131.437714 
z"/>
<path fill="#27130A" opacity="1.000000" stroke="none" 
	d="
M230.538300,108.020828 
	C231.565002,109.345764 232.130203,110.676750 232.540222,112.374191 
	C230.819595,111.501259 229.254120,110.261871 227.512314,108.736038 
	C228.249573,108.308685 229.163193,108.167778 230.538300,108.020828 
z"/>
<path fill="#27130A" opacity="1.000000" stroke="none" 
	d="
M215.988785,101.687317 
	C215.988785,101.687317 215.834183,101.554626 215.556580,101.298111 
	C214.414551,100.432594 213.550110,99.823593 212.685669,99.214600 
	C215.072128,100.282005 217.458603,101.349411 219.862183,102.787827 
	C219.511276,103.100838 219.143234,103.042824 218.294678,102.681686 
	C217.205719,102.148148 216.597244,101.917732 215.988785,101.687317 
z"/>
<path fill="#27130A" opacity="1.000000" stroke="none" 
	d="
M224.162781,106.270966 
	C224.975479,106.474571 225.936707,106.954552 226.922928,107.792992 
	C226.069061,107.616745 225.190170,107.082047 224.162781,106.270966 
z"/>
<path fill="#A46E38" opacity="1.000000" stroke="none" 
	d="
M250.977112,144.962158 
	C250.534760,145.014679 250.106766,145.085342 249.353088,145.145767 
	C249.414078,144.739670 249.800735,144.343796 250.550873,143.935883 
	C250.914383,143.923859 251.085159,144.083023 251.052979,144.308426 
	C251.020782,144.533829 250.947830,144.983322 250.947830,144.983322 
	C250.947830,144.983322 250.991455,144.980301 250.977112,144.962158 
z"/>
<path fill="#A46E38" opacity="1.000000" stroke="none" 
	d="
M251.735596,142.123016 
	C252.014755,142.132675 252.068726,142.310776 252.176697,142.762955 
	C252.230682,143.037018 252.025040,143.437210 251.774872,143.706696 
	C251.524719,143.976181 251.085159,144.083023 251.085159,144.083023 
	C251.085159,144.083023 250.914383,143.923859 250.825256,143.845383 
	C250.994232,143.275101 251.252319,142.783295 251.735596,142.123016 
z"/>
<path fill="#A46E38" opacity="1.000000" stroke="none" 
	d="
M251.057495,138.146759 
	C251.394196,138.355881 251.713409,138.882629 251.992645,139.726562 
	C251.648453,139.517303 251.344238,138.990860 251.057495,138.146759 
z"/>
<path fill="#BC763D" opacity="1.000000" stroke="none" 
	d="
M216.063980,101.970779 
	C216.597244,101.917732 217.205719,102.148148 218.016693,102.639389 
	C218.006882,102.934456 217.794571,102.968681 217.261887,103.045769 
	C216.674057,102.810501 216.406616,102.532372 216.063980,101.970779 
z"/>
<path fill="#27130A" opacity="1.000000" stroke="none" 
	d="
M219.962097,103.350906 
	C220.159317,103.248047 220.465546,103.381622 220.890533,103.744530 
	C220.696548,103.845024 220.383820,103.716179 219.962097,103.350906 
z"/>
<path fill="#020202" opacity="1.000000" stroke="none" 
	d="
M251.052979,144.308426 
	C251.085159,144.083023 251.524719,143.976181 251.746063,143.929810 
	C251.784012,144.172943 251.600616,144.462463 251.182526,144.867645 
	C250.947830,144.983322 251.020782,144.533829 251.052979,144.308426 
z"/>
<path fill="#BC763D" opacity="1.000000" stroke="none" 
	d="
M212.401733,99.136276 
	C213.550110,99.823593 214.414551,100.432594 215.455002,101.305786 
	C215.366638,101.662125 215.102249,101.754272 214.252548,101.673409 
	C213.108063,101.341545 212.548859,101.182693 211.989670,101.023842 
	C211.989670,101.023842 211.999390,101.001099 211.831894,100.761627 
	C211.117004,100.355583 210.569626,100.189018 210.022232,100.022453 
	C210.022232,100.022453 209.999893,100.002724 209.996613,99.756088 
	C209.993332,99.509445 209.967545,99.032822 210.082016,98.915802 
	C210.196487,98.798775 210.420761,98.560249 210.420761,98.560249 
	C210.986450,98.726151 211.552124,98.892052 212.401733,99.136276 
z"/>
<path fill="#BC763D" opacity="1.000000" stroke="none" 
	d="
M208.927383,99.006531 
	C208.930145,98.832390 208.932922,98.658241 208.961411,98.224022 
	C209.336319,98.034523 209.685501,98.105110 210.227722,98.367973 
	C210.420761,98.560249 210.196487,98.798775 209.822235,98.906105 
	C209.274445,99.011131 209.100906,99.008827 208.927383,99.006531 
z"/>
<path fill="#D97F2A" opacity="1.000000" stroke="none" 
	d="
M199.841064,95.748810 
	C199.359131,95.867012 198.705948,95.739449 198.015350,95.323250 
	C198.541885,95.190758 199.105865,95.346901 199.841064,95.748810 
z"/>
<path fill="#D97F2A" opacity="1.000000" stroke="none" 
	d="
M204.828339,97.748550 
	C204.444061,97.837997 203.889481,97.685318 203.161041,97.296509 
	C203.544128,97.209061 204.101089,97.357742 204.828339,97.748550 
z"/>
<path fill="#D97F2A" opacity="1.000000" stroke="none" 
	d="
M212.160263,101.267784 
	C212.548859,101.182693 213.108063,101.341545 213.838501,101.743683 
	C213.450119,101.828560 212.890488,101.670143 212.160263,101.267784 
z"/>
<path fill="#D97F2A" opacity="1.000000" stroke="none" 
	d="
M210.181305,100.267639 
	C210.569626,100.189018 211.117004,100.355583 211.822830,100.770081 
	C211.434311,100.849625 210.887344,100.681221 210.181305,100.267639 
z"/>
<path fill="#D97F2A" opacity="1.000000" stroke="none" 
	d="
M208.787994,99.164703 
	C209.100906,99.008827 209.274445,99.011131 209.707764,99.023132 
	C209.967545,99.032822 209.993332,99.509445 209.984253,99.747795 
	C209.532959,99.765053 209.090775,99.543961 208.787994,99.164703 
z"/>
</svg>