<svg xmlns="http://www.w3.org/2000/svg" shape-rendering="geometricPrecision" text-rendering="geometricPrecision" image-rendering="optimizeQuality" fill-rule="evenodd" clip-rule="evenodd" viewBox="0 0 512 357.383"><path fill="#4D4D4D" fill-rule="nonzero" d="M19.253 0h164.042c5.294 0 10.104 2.174 13.588 5.658 3.493 3.493 5.664 8.316 5.664 13.594v276.113c0 5.276-2.177 10.091-5.669 13.582-3.502 3.49-8.315 5.669-13.583 5.669H19.253c-5.281 0-10.102-2.17-13.595-5.663C2.174 305.47 0 300.659 0 295.365V19.252C0 13.957 2.167 9.14 5.653 5.653 9.14 2.166 13.957 0 19.253 0z"/><path fill="#A3ABB3" fill-rule="nonzero" d="M5.89 67.918v227.447c0 3.665 1.511 7.003 3.932 9.424 2.427 2.428 5.773 3.937 9.431 3.937h164.042c3.654 0 6.996-1.513 9.424-3.938 2.423-2.432 3.938-5.773 3.938-9.423V67.918H5.89z"/><path fill="#939AA1" fill-rule="nonzero" d="M183.295 5.89H19.253c-3.672 0-7.014 1.506-9.436 3.927-2.421 2.421-3.927 5.764-3.927 9.435v41.792h190.767V19.252c0-3.655-1.511-7.003-3.938-9.43-2.421-2.421-5.759-3.932-9.424-3.932z"/><path fill="#4D4D4D" fill-rule="nonzero" d="M161.303 17.688c8.752 0 15.847 7.095 15.847 15.846 0 8.752-7.095 15.847-15.847 15.847-8.751 0-15.846-7.095-15.846-15.847 0-8.751 7.095-15.846 15.846-15.846z"/><circle fill="#DD3E46" cx="161.303" cy="33.535" r="11.784"/><path fill="#4D4D4D" fill-rule="nonzero" d="M26.661 233.248h149.227c4.169 0 7.603 3.435 7.603 7.603v32.405c0 4.165-3.438 7.603-7.603 7.603H26.661c-4.172 0-7.604-3.441-7.604-7.603v-32.405c0-4.191 3.412-7.603 7.604-7.603zm0-135.101h149.227c4.169 0 7.603 3.434 7.603 7.603v32.404c0 4.165-3.438 7.603-7.603 7.603H26.661c-4.172 0-7.604-3.441-7.604-7.603V105.75c0-4.192 3.412-7.603 7.604-7.603zm0 67.55h149.227c4.169 0 7.603 3.435 7.603 7.604v32.404c0 4.166-3.438 7.603-7.603 7.603H26.661c-4.172 0-7.604-3.44-7.604-7.603v-32.404c0-4.192 3.412-7.604 7.604-7.604z"/><path fill="#6B747E" d="M26.661 102.209h149.227c1.948 0 3.541 1.617 3.541 3.541v32.404c0 1.924-1.617 3.541-3.541 3.541H26.661c-1.924 0-3.541-1.593-3.541-3.541V105.75a3.55 3.55 0 013.541-3.541zm0 135.102h149.227c1.948 0 3.541 1.617 3.541 3.54v32.405c0 1.924-1.617 3.54-3.541 3.54H26.661c-1.924 0-3.541-1.592-3.541-3.54v-32.405a3.55 3.55 0 013.541-3.54zm0-67.551h149.227c1.948 0 3.541 1.617 3.541 3.541v32.404c0 1.924-1.617 3.54-3.541 3.54H26.661c-1.924 0-3.541-1.592-3.541-3.54v-32.404a3.55 3.55 0 013.541-3.541z"/><path fill="#313131" d="M134.376 254.019h33.591v13.468h-33.591v-13.468zm0-135.102h33.591v13.469h-33.591v-13.469zm0 67.551h33.591v13.468h-33.591v-13.468z"/><path fill="#464646" d="M512 88.487v226.522H398.624v23.527h35.234v18.847H251.507v-18.847h37.733v-23.527H174.119V88.487H512z"/><path fill="#6CC0EF" d="M184.672 282.738h316.725V99.034H184.672z"/><path fill="#7BC6F1" d="M501.397 282.738V99.034H184.672c91.219 85.761 189.376 159.66 316.725 183.704z"/></svg>